<svg width="22" height="22" viewBox="0 0 22 22" fill="none" xmlns="http://www.w3.org/2000/svg">
<path d="M1 16V6C1 3.23858 3.23858 1 6 1H16C18.7614 1 21 3.23858 21 6V16C21 18.7614 18.7614 21 16 21H6C3.23858 21 1 18.7614 1 16Z" stroke="white" stroke-width="2" stroke-linecap="round" stroke-linejoin="round"/>
<path d="M11.127 7.06348C13.371 7.06358 15.1904 8.88292 15.1904 11.127C15.1903 13.3709 13.3709 15.1903 11.127 15.1904C8.88292 15.1904 7.06358 13.371 7.06348 11.127C7.06348 8.88286 8.88286 7.06348 11.127 7.06348Z" stroke="white" stroke-width="2"/>
<path d="M16.8809 4.57715C17.3037 4.57715 17.6464 4.91991 17.6465 5.34277C17.6465 5.76573 17.3038 6.1084 16.8809 6.1084C16.458 6.10829 16.1152 5.76566 16.1152 5.34277C16.1153 4.91998 16.4581 4.57726 16.8809 4.57715Z" stroke="white"/>
</svg>
