<svg width="508" height="162" viewBox="0 0 508 162" fill="none" xmlns="http://www.w3.org/2000/svg">
<path d="M31.7638 90.9999C36.0571 90.9999 39.8904 91.7359 43.2638 93.2079C46.6984 94.6799 49.4278 96.6732 51.4518 99.1879C53.4758 101.703 54.4878 104.524 54.4878 107.652C54.4878 110.289 53.6904 112.712 52.0958 114.92C50.5011 117.128 48.2011 118.999 45.1958 120.532C49.9798 121.881 53.7211 124.273 56.4198 127.708C59.1184 131.081 60.4678 135.068 60.4678 139.668C60.4678 143.655 59.4251 147.181 57.3398 150.248C55.2544 153.315 52.3718 155.707 48.6918 157.424C45.0118 159.141 40.7491 160 35.9038 160H2.13977C1.21977 160 0.759766 159.54 0.759766 158.62V155.86C0.759766 154.94 1.21977 154.48 2.13977 154.48C6.67843 154.48 8.94777 151.567 8.94777 145.74V105.26C8.94777 99.4332 6.67843 96.5199 2.13977 96.5199C1.21977 96.5199 0.759766 96.0599 0.759766 95.1399V92.3799C0.759766 91.4599 1.21977 90.9999 2.13977 90.9999H31.7638ZM28.8198 118.784C32.6224 118.784 35.5358 117.803 37.5598 115.84C39.6451 113.877 40.6878 111.148 40.6878 107.652C40.6878 104.156 39.6758 101.427 37.6518 99.4639C35.6278 97.5012 32.8064 96.5199 29.1878 96.5199H23.5758V118.784H28.8198ZM31.9478 154.48C36.6091 154.48 40.2278 153.192 42.8038 150.616C45.3798 147.979 46.6678 144.329 46.6678 139.668C46.6678 130.1 40.7491 125.316 28.9118 125.316H23.5758V145.74C23.5758 148.561 24.0971 150.739 25.1398 152.272C26.1824 153.744 27.6851 154.48 29.6478 154.48H31.9478Z" fill="white"/>
<path d="M92.3903 154.48C93.3103 154.48 93.7703 154.94 93.7703 155.86V158.62C93.7703 159.54 93.249 160 92.2063 160H66.1703C65.1277 160 64.6063 159.54 64.6063 158.62V155.86C64.6063 154.94 65.0663 154.48 65.9863 154.48H66.1703C68.4397 154.48 70.0957 153.652 71.1383 151.996C72.2423 150.279 72.7943 148.193 72.7943 145.74V111.24C72.7943 109.523 72.6717 107.897 72.4263 106.364C72.2423 104.831 71.7823 103.543 71.0463 102.5C70.3103 101.396 69.0837 100.752 67.3663 100.568C66.6303 100.507 66.2623 100.108 66.2623 99.3719V96.2439C66.2623 95.8759 66.385 95.6306 66.6303 95.5079C66.8757 95.3852 67.213 95.2319 67.6423 95.0479C71.997 93.4532 75.4623 91.9812 78.0383 90.6319C80.6757 89.2212 82.853 87.8719 84.5703 86.5839C84.693 86.4612 84.8157 86.3999 84.9383 86.3999H85.2143C85.337 86.3999 85.3983 86.4612 85.3983 86.5839V145.648C85.3983 148.101 85.9503 150.187 87.0543 151.904C88.1583 153.621 89.845 154.48 92.1143 154.48H92.3903Z" fill="white"/>
<path d="M142.001 142.98C142.001 145.188 142.338 147.181 143.013 148.96C143.687 150.677 145.159 151.689 147.429 151.996C148.165 152.057 148.533 152.456 148.533 153.192V156.228C148.533 157.087 148.073 157.516 147.153 157.516C144.147 157.516 141.633 157.7 139.609 158.068C137.646 158.375 135.929 158.804 134.457 159.356C133.046 159.847 131.635 160.399 130.225 161.012C129.979 161.135 129.765 161.196 129.581 161.196H129.305C129.182 161.196 129.121 161.073 129.121 160.828C129.121 160.583 129.182 160 129.305 159.08C129.427 158.099 129.55 157.025 129.673 155.86C129.857 154.633 130.01 153.591 130.133 152.732C129.826 153.529 129.151 154.603 128.109 155.952C127.127 157.301 125.655 158.528 123.693 159.632C121.791 160.675 119.277 161.196 116.149 161.196C114.063 161.196 111.825 160.767 109.433 159.908C107.102 159.049 104.894 157.669 102.809 155.768C100.723 153.867 99.0059 151.383 97.6566 148.316C96.3686 145.188 95.7246 141.385 95.7246 136.908C95.7246 131.204 96.7366 126.604 98.7606 123.108C100.846 119.551 103.514 116.944 106.765 115.288C110.077 113.632 113.573 112.804 117.253 112.804C120.258 112.804 123.018 113.264 125.533 114.184C128.047 115.104 130.255 116.423 132.157 118.14C133.751 117.465 135.101 116.852 136.205 116.3C137.37 115.687 138.351 115.073 139.149 114.46C139.455 114.215 139.762 113.969 140.069 113.724C140.437 113.479 140.835 113.233 141.265 112.988C141.449 112.865 141.602 112.804 141.725 112.804H141.817C141.939 112.804 142.001 112.865 142.001 112.988V142.98ZM129.121 128.536C128.937 127.309 128.477 125.96 127.741 124.488C127.066 122.955 126.023 121.667 124.613 120.624C123.202 119.52 121.301 118.968 118.909 118.968C115.965 118.968 113.665 119.704 112.009 121.176C110.353 122.587 109.187 124.427 108.513 126.696C107.899 128.965 107.593 131.388 107.593 133.964C107.593 139.852 108.758 144.513 111.089 147.948C113.481 151.383 116.547 153.1 120.289 153.1C122.497 153.1 124.214 152.64 125.441 151.72C126.729 150.739 127.649 149.757 128.201 148.776C128.753 147.795 129.059 147.212 129.121 147.028V128.536Z" fill="white"/>
<path d="M191.193 147.58C191.684 147.948 191.929 148.347 191.929 148.776C191.929 148.899 191.868 149.144 191.745 149.512C189.967 153.437 187.329 156.381 183.833 158.344C180.399 160.245 176.627 161.196 172.517 161.196C169.083 161.196 165.955 160.46 163.133 158.988C160.312 157.455 157.92 155.431 155.957 152.916C153.995 150.401 152.553 147.58 151.633 144.452C150.713 141.324 150.376 138.104 150.621 134.792C151.051 129.701 152.461 125.531 154.853 122.28C157.245 119.029 160.128 116.637 163.501 115.104C166.936 113.571 170.371 112.804 173.805 112.804C177.853 112.804 181.135 113.417 183.649 114.644C186.164 115.871 188.096 117.465 189.445 119.428C190.795 121.391 191.715 123.445 192.205 125.592C192.267 125.837 192.297 126.052 192.297 126.236C192.297 126.727 191.929 127.064 191.193 127.248L180.613 130.008C180.245 130.131 179.969 130.192 179.785 130.192C179.356 130.192 179.141 129.977 179.141 129.548C179.141 129.303 179.141 129.057 179.141 128.812C179.203 128.567 179.233 128.229 179.233 127.8C179.233 125.837 178.62 124.089 177.393 122.556C176.167 121.023 174.265 120.256 171.689 120.256C169.359 120.256 167.519 120.992 166.169 122.464C164.82 123.936 163.839 125.837 163.225 128.168C162.673 130.437 162.397 132.829 162.397 135.344C162.397 138.349 162.796 141.201 163.593 143.9C164.391 146.599 165.679 148.807 167.457 150.524C169.297 152.18 171.781 153.008 174.909 153.008C177.363 153.008 179.632 152.425 181.717 151.26C183.803 150.033 185.52 148.377 186.869 146.292C187.115 145.863 187.483 145.648 187.973 145.648C188.28 145.648 188.556 145.74 188.801 145.924L191.193 147.58Z" fill="white"/>
<path d="M248.903 154.48C249.701 154.48 250.099 154.94 250.099 155.86V158.62C250.099 159.54 249.639 160 248.719 160H226.179C225.259 160 224.799 159.54 224.799 158.62V155.768C224.799 154.909 225.198 154.48 225.995 154.48H227.375C227.989 154.48 228.541 154.357 229.031 154.112C229.583 153.867 229.859 153.529 229.859 153.1C229.859 152.671 229.614 152.211 229.123 151.72L216.979 138.564L215.047 140.312V145.74C215.047 148.132 215.139 149.972 215.323 151.26C215.568 152.487 216.029 153.345 216.703 153.836C217.439 154.265 218.543 154.48 220.015 154.48C220.935 154.48 221.395 154.94 221.395 155.86V158.62C221.395 159.54 220.935 160 220.015 160H195.451C194.531 160 194.071 159.54 194.071 158.62V155.86C194.071 154.94 194.531 154.48 195.451 154.48C197.721 154.48 199.407 153.652 200.511 151.996C201.615 150.279 202.167 148.193 202.167 145.74V111.24C202.167 109.584 202.045 107.989 201.799 106.456C201.615 104.923 201.125 103.635 200.327 102.592C199.591 101.488 198.365 100.844 196.647 100.66C195.973 100.599 195.635 100.2 195.635 99.4639V96.3359C195.635 95.9679 195.727 95.7226 195.911 95.5999C196.157 95.4159 196.494 95.2626 196.923 95.1399C201.83 93.5452 205.633 91.9506 208.331 90.3559C211.03 88.7612 212.993 87.5039 214.219 86.5839C214.403 86.4612 214.557 86.3999 214.679 86.3999H214.863C214.986 86.3999 215.047 86.4612 215.047 86.5839V132.216L226.271 122.004C226.762 121.513 227.007 121.084 227.007 120.716C227.007 119.919 226.394 119.52 225.167 119.52H222.407C221.61 119.52 221.211 119.06 221.211 118.14V115.38C221.211 114.46 221.671 114 222.591 114H243.015C243.935 114 244.395 114.46 244.395 115.38V118.14C244.395 119.06 243.997 119.52 243.199 119.52H242.095C240.317 119.52 238.722 119.98 237.311 120.9C235.962 121.82 234.091 123.353 231.699 125.5L224.615 131.848L244.303 151.628C245.346 152.671 246.174 153.407 246.787 153.836C247.401 154.265 248.014 154.48 248.627 154.48H248.903Z" fill="white"/>
<path d="M284.469 153.376C284.653 153.621 284.745 153.897 284.745 154.204C284.745 154.572 284.5 154.909 284.009 155.216L281.249 156.964C279.593 158.007 277.6 158.988 275.269 159.908C272.938 160.767 270.608 161.196 268.277 161.196C266.437 161.196 264.689 160.767 263.033 159.908C261.438 159.049 260.15 157.608 259.169 155.584C258.188 153.499 257.697 150.647 257.697 147.028V130.008C257.697 128.352 257.605 126.727 257.421 125.132C257.237 123.476 256.654 122.127 255.673 121.084C254.753 120.041 253.189 119.52 250.981 119.52C250.061 119.52 249.601 119.06 249.601 118.14V115.38C249.601 114.46 250.061 114 250.981 114H257.697V107.836C257.697 107.039 257.973 106.487 258.525 106.18C259.874 105.444 261.653 104.432 263.861 103.144C266.069 101.795 268.032 100.261 269.749 98.5439C269.872 98.4212 270.025 98.3599 270.209 98.3599H270.393C270.516 98.3599 270.577 98.4519 270.577 98.6359V114H282.905C283.825 114 284.285 114.46 284.285 115.38V119.336C284.285 120.256 283.825 120.716 282.905 120.716H270.577V147.028C270.577 149.42 270.945 151.076 271.681 151.996C272.417 152.855 273.337 153.284 274.441 153.284C275.484 153.284 276.588 153.008 277.753 152.456C278.918 151.843 279.992 151.229 280.973 150.616C281.402 150.371 281.74 150.248 281.985 150.248C282.353 150.248 282.69 150.493 282.997 150.984L284.469 153.376Z" fill="white"/>
<path d="M346.93 154.48C347.85 154.48 348.31 154.94 348.31 155.86V158.62C348.31 159.54 347.85 160 346.93 160H321.906C320.986 160 320.526 159.54 320.526 158.62V155.86C320.526 154.94 320.986 154.48 321.906 154.48H322.182C323.899 154.48 325.126 153.652 325.862 151.996C326.598 150.279 326.966 148.193 326.966 145.74V130.008C326.966 126.941 326.567 124.672 325.77 123.2C324.973 121.667 323.163 120.9 320.342 120.9C318.073 120.9 315.834 121.575 313.626 122.924C311.479 124.273 309.977 125.929 309.118 127.892V145.74C309.118 148.193 309.67 150.279 310.774 151.996C311.939 153.652 313.657 154.48 315.926 154.48H316.11C317.03 154.48 317.49 154.94 317.49 155.86V158.62C317.49 159.54 317.03 160 316.11 160H289.338C288.418 160 287.958 159.54 287.958 158.62V155.86C287.958 154.94 288.418 154.48 289.338 154.48H289.522C291.791 154.48 293.478 153.652 294.582 151.996C295.686 150.279 296.238 148.193 296.238 145.74V111.24C296.238 109.584 296.115 107.989 295.87 106.456C295.686 104.923 295.226 103.635 294.49 102.592C293.754 101.488 292.527 100.844 290.81 100.66C290.074 100.599 289.706 100.2 289.706 99.4639V96.3359C289.706 95.9679 289.798 95.7226 289.982 95.5999C290.227 95.4159 290.565 95.2626 290.994 95.1399C293.877 94.1586 296.79 92.9932 299.734 91.6439C302.739 90.2946 305.591 88.6079 308.29 86.5839C308.474 86.4612 308.627 86.3999 308.75 86.3999H308.842C308.965 86.3999 309.026 86.4612 309.026 86.5839V121.912C309.578 120.808 310.498 119.551 311.786 118.14C313.135 116.729 314.853 115.503 316.938 114.46C319.023 113.356 321.477 112.804 324.298 112.804C327.181 112.804 329.787 113.264 332.118 114.184C334.51 115.104 336.411 116.729 337.822 119.06C339.233 121.329 339.938 124.549 339.938 128.72V145.74C339.938 148.193 340.49 150.279 341.594 151.996C342.698 153.652 344.385 154.48 346.654 154.48H346.93Z" fill="white"/>
<path d="M371.457 112.804C374.953 112.804 378.173 113.509 381.117 114.92C384.123 116.269 386.699 118.14 388.845 120.532C390.992 122.863 392.648 125.5 393.813 128.444C395.04 131.327 395.653 134.332 395.653 137.46C395.653 141.999 394.58 146.077 392.433 149.696C390.287 153.253 387.465 156.075 383.969 158.16C380.473 160.184 376.671 161.196 372.561 161.196C369.065 161.196 365.845 160.521 362.901 159.172C359.957 157.823 357.381 156.013 355.173 153.744C353.027 151.413 351.34 148.776 350.113 145.832C348.948 142.827 348.365 139.699 348.365 136.448C348.365 131.971 349.408 127.953 351.493 124.396C353.579 120.839 356.369 118.017 359.865 115.932C363.361 113.847 367.225 112.804 371.457 112.804ZM375.413 153.744C376.579 153.744 377.867 153.437 379.277 152.824C380.688 152.211 381.915 151.137 382.957 149.604C384.061 148.071 384.613 145.955 384.613 143.256C384.613 141.109 384.184 138.748 383.325 136.172C382.528 133.535 381.393 131.02 379.921 128.628C378.511 126.175 376.824 124.181 374.861 122.648C372.96 121.053 370.875 120.256 368.605 120.256C366.091 120.256 363.913 121.207 362.073 123.108C360.233 124.948 359.313 127.493 359.313 130.744C359.313 132.829 359.712 135.191 360.509 137.828C361.368 140.465 362.503 143.011 363.913 145.464C365.385 147.856 367.103 149.849 369.065 151.444C371.028 152.977 373.144 153.744 375.413 153.744Z" fill="white"/>
<path d="M418.787 123.66C420.443 120.103 422.743 117.404 425.687 115.564C428.631 113.724 431.728 112.804 434.979 112.804C437.862 112.804 440.315 113.601 442.339 115.196C444.363 116.791 445.375 119.152 445.375 122.28C445.375 123.629 445.252 124.825 445.007 125.868C444.762 126.911 444.087 127.677 442.983 128.168L434.335 131.664C433.967 131.787 433.691 131.848 433.507 131.848C432.955 131.848 432.679 131.572 432.679 131.02C432.679 130.836 432.74 130.56 432.863 130.192C433.231 129.333 433.446 128.505 433.507 127.708C433.63 126.911 433.691 126.205 433.691 125.592C433.691 123.936 433.262 122.74 432.403 122.004C431.606 121.207 430.594 120.808 429.367 120.808C427.956 120.808 426.638 121.237 425.411 122.096C424.184 122.955 423.111 123.997 422.191 125.224C421.271 126.451 420.596 127.647 420.167 128.812V145.74C420.167 148.193 420.719 150.279 421.823 151.996C422.927 153.652 424.614 154.48 426.883 154.48H427.067C427.987 154.48 428.447 154.94 428.447 155.86V158.62C428.447 159.54 427.987 160 427.067 160H400.295C399.375 160 398.915 159.54 398.915 158.62V155.86C398.915 154.94 399.375 154.48 400.295 154.48H400.479C402.748 154.48 404.435 153.652 405.539 151.996C406.643 150.279 407.195 148.193 407.195 145.74V134.148C407.195 132.492 407.072 130.897 406.827 129.364C406.643 127.831 406.183 126.543 405.447 125.5C404.711 124.396 403.484 123.752 401.767 123.568C401.031 123.507 400.663 123.108 400.663 122.372V119.244C400.663 118.631 401.123 118.232 402.043 118.048C406.398 117.373 410.2 116.3 413.451 114.828C416.763 113.356 419.002 112.191 420.167 111.332C420.351 111.209 420.504 111.148 420.627 111.148H420.811C420.934 111.148 420.995 111.209 420.995 111.332C420.995 111.393 420.903 111.853 420.719 112.712C420.596 113.571 420.412 114.675 420.167 116.024C419.983 117.312 419.738 118.661 419.431 120.072C419.186 121.421 418.971 122.617 418.787 123.66Z" fill="white"/>
<path d="M499.319 130.008V145.74C499.319 149.113 499.84 151.413 500.883 152.64C501.987 153.867 503.428 154.48 505.207 154.48H505.943C506.863 154.48 507.323 154.94 507.323 155.86V158.62C507.323 159.54 506.863 160 505.943 160H481.471C480.551 160 480.091 159.54 480.091 158.62V155.86C480.091 154.94 480.551 154.48 481.471 154.48H482.115C483.403 154.48 484.445 153.867 485.243 152.64C486.04 151.413 486.439 149.113 486.439 145.74V130.008C486.439 127.064 485.979 124.825 485.059 123.292C484.139 121.697 482.391 120.9 479.815 120.9C478.281 120.9 476.748 121.299 475.215 122.096C473.681 122.832 472.332 123.813 471.167 125.04C470.001 126.205 469.143 127.463 468.591 128.812V145.74C468.591 148.193 469.112 150.279 470.155 151.996C471.259 153.652 472.7 154.48 474.479 154.48H474.663C475.583 154.48 476.043 154.94 476.043 155.86V158.62C476.043 159.54 475.583 160 474.663 160H448.811C447.891 160 447.431 159.54 447.431 158.62V155.86C447.431 154.94 447.891 154.48 448.811 154.48H448.995C451.264 154.48 452.951 153.652 454.055 151.996C455.159 150.279 455.711 148.193 455.711 145.74V134.148C455.711 132.492 455.588 130.897 455.343 129.364C455.159 127.831 454.668 126.543 453.871 125.5C453.135 124.396 451.908 123.752 450.191 123.568C449.516 123.507 449.179 123.108 449.179 122.372V119.244C449.179 118.631 449.608 118.232 450.467 118.048C454.883 117.373 458.655 116.331 461.783 114.92C464.972 113.509 467.18 112.375 468.407 111.516C468.713 111.271 468.959 111.148 469.143 111.148H469.235C469.357 111.148 469.419 111.209 469.419 111.332C469.419 111.455 469.388 111.7 469.327 112.068L467.763 123.384C468.621 121.973 469.756 120.471 471.167 118.876C472.577 117.22 474.325 115.809 476.411 114.644C478.496 113.417 480.919 112.804 483.679 112.804C486.991 112.804 489.689 113.295 491.775 114.276C493.86 115.257 495.424 116.576 496.467 118.232C497.571 119.888 498.307 121.728 498.675 123.752C499.104 125.776 499.319 127.861 499.319 130.008Z" fill="white"/>
<path d="M64.7918 54.3119C65.3438 54.6186 65.6198 54.9559 65.6198 55.3239C65.6198 55.5692 65.5278 55.8759 65.3438 56.2439L56.6958 74.4599C56.4504 75.0119 56.0824 75.2879 55.5918 75.2879C55.2851 75.2879 55.0091 75.1652 54.7638 74.9199L54.3038 74.4599C53.9971 74.1532 53.3838 73.9999 52.4638 73.9999H2.13977C1.21977 73.9999 0.759766 73.5399 0.759766 72.6199V69.8599C0.759766 68.9399 1.21977 68.4799 2.13977 68.4799H2.32377C6.73977 68.4799 8.94777 65.5666 8.94777 59.7399V19.3519C8.94777 13.5252 6.7091 10.6119 2.23177 10.6119H2.13977C1.21977 10.6119 0.759766 10.1519 0.759766 9.2319V6.4719C0.759766 5.49057 1.21977 4.9999 2.13977 4.9999H48.2318C49.0291 4.9999 49.6118 4.84656 49.9798 4.5399L50.5318 4.0799C50.7158 3.8959 50.9611 3.8039 51.2678 3.8039C51.7584 3.8039 52.1571 4.04923 52.4638 4.5399L59.7318 17.0519C59.9158 17.2972 60.0078 17.5732 60.0078 17.8799C60.0078 18.3092 59.7624 18.6772 59.2718 18.9839L55.5918 21.0079C55.1624 21.2532 54.8251 21.3759 54.5798 21.3759C54.1504 21.3759 53.7824 21.0999 53.4758 20.5479L53.1998 20.0879C51.2984 16.8986 49.2438 14.6906 47.0358 13.4639C44.8891 12.1759 42.0371 11.5319 38.4798 11.5319H23.5758V33.1519H31.6718C34.4318 33.1519 36.5784 32.6306 38.1118 31.5879C39.6451 30.5452 40.4118 29.0119 40.4118 26.9879V26.3439C40.4118 25.4239 40.8718 24.9639 41.7918 24.9639H44.5518C45.4718 24.9639 45.9318 25.4239 45.9318 26.3439V47.2279C45.9318 48.1479 45.4718 48.6079 44.5518 48.6079H41.7918C40.8718 48.6079 40.4118 48.1479 40.4118 47.2279V46.6759C40.4118 44.5906 39.6451 43.0572 38.1118 42.0759C36.6398 41.0332 34.4931 40.5119 31.6718 40.5119H23.5758V58.7279C23.5758 64.5546 25.6918 67.4679 29.9238 67.4679H35.9038C40.4424 67.4679 44.1224 67.0386 46.9438 66.1799C49.8264 65.3212 52.2184 63.8799 54.1198 61.8559C56.0824 59.8319 57.9224 57.1026 59.6398 53.6679L59.9158 53.1159C60.2224 52.6252 60.6211 52.3799 61.1118 52.3799C61.4184 52.3799 61.6638 52.4412 61.8478 52.5639L64.7918 54.3119Z" fill="white"/>
<path d="M159.103 68.4799C160.023 68.4799 160.483 68.9399 160.483 69.8599V72.6199C160.483 73.5399 160.023 73.9999 159.103 73.9999H133.159C132.239 73.9999 131.779 73.5399 131.779 72.6199V69.8599C131.779 68.9399 132.239 68.4799 133.159 68.4799H133.619C135.581 68.4799 136.869 67.7746 137.483 66.3639C138.096 64.8919 138.403 62.6839 138.403 59.7399V44.0079C138.403 42.3519 138.249 40.8492 137.943 39.4999C137.697 38.0892 137.084 36.9852 136.103 36.1879C135.183 35.3292 133.741 34.8999 131.779 34.8999C129.141 34.8999 126.811 35.7279 124.787 37.3839C122.824 39.0399 121.168 41.1252 119.819 43.6399V59.7399C119.819 63.1132 120.34 65.4132 121.383 66.6399C122.487 67.8666 123.928 68.4799 125.707 68.4799H126.443C127.363 68.4799 127.823 68.9399 127.823 69.8599V72.6199C127.823 73.5399 127.363 73.9999 126.443 73.9999H101.419C100.499 73.9999 100.039 73.5399 100.039 72.6199V69.8599C100.039 68.9399 100.499 68.4799 101.419 68.4799H102.063C103.351 68.4799 104.485 67.8666 105.467 66.6399C106.448 65.4132 106.939 63.1132 106.939 59.7399V44.0079C106.939 41.0639 106.54 38.8252 105.743 37.2919C105.007 35.6972 103.197 34.8999 100.315 34.8999C98.7812 34.8999 97.2479 35.2986 95.7145 36.0959C94.1812 36.8319 92.8319 37.8132 91.6665 39.0399C90.5012 40.2052 89.6425 41.4626 89.0905 42.8119V59.7399C89.0905 62.1932 89.6119 64.2786 90.6545 65.9959C91.7585 67.6519 93.1999 68.4799 94.9785 68.4799H95.1626C96.0826 68.4799 96.5425 68.9399 96.5425 69.8599V72.6199C96.5425 73.5399 96.0826 73.9999 95.1626 73.9999H69.3105C68.3905 73.9999 67.9305 73.5399 67.9305 72.6199V69.8599C67.9305 68.9399 68.3905 68.4799 69.3105 68.4799H69.4945C71.7639 68.4799 73.4506 67.6519 74.5546 65.9959C75.6586 64.2786 76.2105 62.1932 76.2105 59.7399V48.1479C76.2105 46.4919 76.0879 44.8972 75.8425 43.3639C75.6585 41.8306 75.1679 40.5426 74.3705 39.4999C73.6345 38.3959 72.4079 37.7519 70.6905 37.5679C70.0159 37.5066 69.6786 37.1079 69.6786 36.3719V33.2439C69.6786 32.6306 70.1079 32.2319 70.9665 32.0479C75.3825 31.3732 79.1545 30.3306 82.2825 28.9199C85.4719 27.5092 87.6799 26.3746 88.9065 25.5159C89.2132 25.2706 89.4585 25.1479 89.6425 25.1479H89.7346C89.8572 25.1479 89.9185 25.2092 89.9185 25.3319C89.9185 25.4546 89.8879 25.6999 89.8265 26.0679L88.2626 37.3839C89.1212 35.9732 90.2559 34.4706 91.6665 32.8759C93.0772 31.2199 94.8252 29.8092 96.9105 28.6439C98.9959 27.4172 101.419 26.8039 104.179 26.8039C108.717 26.8039 112.091 27.6626 114.299 29.3799C116.507 31.0359 118.009 33.1826 118.807 35.8199C120.892 33.1212 123.315 30.9439 126.075 29.2879C128.896 27.6319 132.116 26.8039 135.735 26.8039C139.047 26.8039 141.715 27.3252 143.739 28.3679C145.824 29.3492 147.419 30.6986 148.523 32.4159C149.627 34.0719 150.363 35.9732 150.731 38.1199C151.16 40.2052 151.375 42.3519 151.375 44.5599V59.7399C151.375 62.1932 151.927 64.2786 153.031 65.9959C154.196 67.6519 155.883 68.4799 158.091 68.4799H159.103Z" fill="white"/>
<path d="M191.937 68.4799C192.857 68.4799 193.317 68.9399 193.317 69.8599V72.6199C193.317 73.5399 192.796 73.9999 191.753 73.9999H165.717C164.675 73.9999 164.153 73.5399 164.153 72.6199V69.8599C164.153 68.9399 164.613 68.4799 165.533 68.4799H165.717C167.987 68.4799 169.643 67.6519 170.685 65.9959C171.789 64.2786 172.341 62.1932 172.341 59.7399V49.9879C172.341 48.5772 172.219 47.1666 171.973 45.7559C171.789 44.3452 171.329 43.1186 170.593 42.0759C169.857 41.0332 168.631 40.4199 166.913 40.2359C166.177 40.1746 165.809 39.7759 165.809 39.0399V35.9119C165.809 35.5439 165.932 35.2986 166.177 35.1759C166.423 34.9919 166.76 34.8386 167.189 34.7159C172.035 33.1212 175.745 31.4959 178.321 29.8399C180.959 28.1226 182.891 26.6199 184.117 25.3319C184.24 25.2092 184.363 25.1479 184.485 25.1479H184.761C184.884 25.1479 184.945 25.2092 184.945 25.3319V59.6479C184.945 62.1012 185.497 64.1866 186.601 65.9039C187.705 67.6212 189.392 68.4799 191.661 68.4799H191.937ZM178.781 5.9199C180.376 5.9199 181.94 6.68657 183.473 8.2199C185.007 9.75323 185.773 11.2866 185.773 12.8199C185.773 14.3532 185.007 15.8866 183.473 17.4199C181.94 18.9532 180.376 19.7199 178.781 19.7199C177.309 19.7199 175.776 18.9532 174.181 17.4199C172.648 15.9479 171.881 14.4146 171.881 12.8199C171.881 11.2866 172.648 9.75323 174.181 8.2199C175.715 6.68657 177.248 5.9199 178.781 5.9199Z" fill="white"/>
<path d="M223.832 68.4799C224.752 68.4799 225.212 68.9399 225.212 69.8599V72.6199C225.212 73.5399 224.69 73.9999 223.648 73.9999H197.612C196.569 73.9999 196.048 73.5399 196.048 72.6199V69.8599C196.048 68.9399 196.508 68.4799 197.428 68.4799H197.612C199.881 68.4799 201.537 67.6519 202.58 65.9959C203.684 64.2786 204.236 62.1932 204.236 59.7399V25.2399C204.236 23.5226 204.113 21.8972 203.868 20.3639C203.684 18.8306 203.224 17.5426 202.488 16.4999C201.752 15.3959 200.525 14.7519 198.808 14.5679C198.072 14.5066 197.704 14.1079 197.704 13.3719V10.2439C197.704 9.8759 197.826 9.63057 198.072 9.5079C198.317 9.38524 198.654 9.2319 199.084 9.0479C203.438 7.45323 206.904 5.98123 209.48 4.6319C212.117 3.22124 214.294 1.8719 216.012 0.5839C216.134 0.461235 216.257 0.399902 216.38 0.399902H216.656C216.778 0.399902 216.84 0.461235 216.84 0.5839V59.6479C216.84 62.1012 217.392 64.1866 218.496 65.9039C219.6 67.6212 221.286 68.4799 223.556 68.4799H223.832Z" fill="white"/>
<path d="M276.009 27.9999C276.929 27.9999 277.389 28.4599 277.389 29.3799V32.1399C277.389 33.0599 276.929 33.5199 276.009 33.5199H274.721C273.74 33.5199 272.881 33.9186 272.145 34.7159C271.409 35.4519 270.489 36.9546 269.385 39.2239L242.705 92.9519C242.337 93.7492 241.724 93.9639 240.865 93.5959L236.173 91.2039C235.315 90.8359 235.069 90.2226 235.437 89.3639L245.741 67.2839L232.217 39.3159C231.113 37.0466 230.255 35.5132 229.641 34.7159C229.028 33.9186 228.108 33.5199 226.881 33.5199H226.697C225.777 33.5199 225.317 33.0599 225.317 32.1399V29.3799C225.317 28.4599 225.777 27.9999 226.697 27.9999H247.949C248.869 27.9999 249.329 28.4599 249.329 29.3799V32.1399C249.329 33.0599 248.869 33.5199 247.949 33.5199H247.765C245.803 33.5199 244.821 34.3172 244.821 35.9119C244.821 36.7092 245.036 37.6599 245.465 38.7639C245.895 39.8066 246.385 40.9412 246.937 42.1679L253.101 55.5999L259.725 41.9839C260.4 40.6959 260.952 39.4999 261.381 38.3959C261.811 37.2306 262.025 36.2492 262.025 35.4519C262.025 34.1639 261.32 33.5199 259.909 33.5199H258.253C257.333 33.5199 256.873 33.0599 256.873 32.1399V29.3799C256.873 28.4599 257.333 27.9999 258.253 27.9999H276.009Z" fill="white"/>
</svg>
