<svg width="302" height="249" viewBox="0 0 302 249" fill="none" xmlns="http://www.w3.org/2000/svg">
<g clip-path="url(#clip0_113_751)">
<path d="M200.678 240.409C191.764 244.647 184.923 243.526 180.151 237.045C174.439 228.582 175.564 221.485 183.527 215.755C195.972 206.679 207.69 197.098 218.684 187.011C229.678 176.924 238.291 163.351 244.523 146.293C247.644 137.518 248.539 129.68 247.209 122.779C245.388 115.868 239.341 111.816 229.068 110.625C211.953 108.312 198.088 102.874 187.474 94.31C176.86 85.7465 171.723 73.121 172.064 56.4335C172.344 42.6908 177.741 30.5257 188.254 19.9377C198.768 9.34983 213.339 4.24576 231.964 4.62547C250.101 4.99521 265.88 12.6821 279.305 27.6861C292.721 43.1809 299.182 62.953 298.692 87.0026C298.211 110.561 293.12 131.817 283.416 150.768C273.702 170.211 261.339 187.389 246.323 202.305C231.308 217.22 216.094 229.921 200.678 240.409ZM34.5108 237.022C25.5978 241.259 18.7554 240.138 13.9838 233.657C8.27191 225.194 9.39734 218.097 17.3601 212.367C29.8045 203.291 41.5234 193.71 52.5172 183.623C63.5111 173.536 72.124 159.964 78.3563 142.905C81.4774 134.131 82.3727 126.293 81.0423 119.391C79.2216 112.48 73.1746 108.429 62.9011 107.237C45.7854 104.924 31.9207 99.486 21.307 90.9225C10.6934 82.359 5.55672 69.7335 5.89692 53.046C6.17708 39.3033 11.574 27.1382 22.0876 16.5502C32.6013 5.9623 47.1713 0.858221 65.7976 1.23794C83.9339 1.60767 99.7141 9.29454 113.139 24.2985C126.553 39.7934 133.015 59.5655 132.525 83.6151C132.045 107.174 126.953 128.429 117.25 147.381C107.536 166.823 95.1718 184.002 80.1566 198.917C65.1414 213.833 49.9262 226.533 34.5108 237.022Z" fill="white" fill-opacity="0.3"/>
</g>
<defs>
<clipPath id="clip0_113_751">
<rect width="296" height="243" fill="white" transform="translate(5.50684 0.00878906) rotate(1.16789)"/>
</clipPath>
</defs>
</svg>
